<svg version="1.1" xmlns="http://www.w3.org/2000/svg" xmlns:xlink="http://www.w3.org/1999/xlink" width="512" height="512" viewBox="0,0,256,256"><g fill="#ffffff" fill-rule="nonzero" stroke="none" stroke-width="1" stroke-linecap="butt" stroke-linejoin="miter" stroke-miterlimit="10" stroke-dasharray="" stroke-dashoffset="0" font-family="none" font-weight="none" font-size="none" text-anchor="none" style="mix-blend-mode: normal"><g transform="scale(0.5,0.5)"><path d="M16,352c0.02756,26.49824 21.50176,47.97244 48,48h133.88l-4,32h-49.88c-8.83656,0 -16,7.16344 -16,16c0,8.83656 7.16344,16 16,16h224c8.83656,0 16,-7.16344 16,-16c0,-8.83656 -7.16344,-16 -16,-16h-49.88l-4,-32h133.88c26.49824,-0.02756 47.97244,-21.50176 48,-48v-48h-480zM256,336c8.83656,0 16,7.16344 16,16c0,8.83656 -7.16344,16 -16,16c-8.83656,0 -16,-7.16344 -16,-16c0,-8.83656 7.16344,-16 16,-16z"></path><path d="M496,96c-0.02756,-26.49824 -21.50176,-47.97244 -48,-48h-384c-26.49824,0.02756 -47.97244,21.50176 -48,48v192h480z"></path></g></g></svg>