<svg version="1.1" xmlns="http://www.w3.org/2000/svg" xmlns:xlink="http://www.w3.org/1999/xlink" width="512" height="512" viewBox="0,0,256,256"><g fill="#fff3f3" fill-rule="nonzero" stroke="none" stroke-width="1" stroke-linecap="butt" stroke-linejoin="miter" stroke-miterlimit="10" stroke-dasharray="" stroke-dashoffset="0" font-family="none" font-weight="none" font-size="none" text-anchor="none" style="mix-blend-mode: normal"><g transform="scale(0.5,0.5)"><path d="M480,48h-448c-8.83656,0 -16,7.16344 -16,16v320c0,8.83656 7.16344,16 16,16h168v32h-72v32h256v-32h-72v-32h168c8.83656,0 16,-7.16344 16,-16v-320c0,-8.83656 -7.16344,-16 -16,-16zM460,84v216h-408v-216zM240.13,354.08c-0.88857,-6.79415 2.64772,-13.39993 8.79439,-16.42787c6.14667,-3.02795 13.53911,-1.80583 18.38421,3.03927c4.8451,4.8451 6.06722,12.23754 3.03927,18.38421c-3.02795,6.14667 -9.63372,9.68297 -16.42787,8.79439c-7.1906,-0.94042 -12.84958,-6.5994 -13.79,-13.79z"></path></g></g></svg>