<svg version="1.1" xmlns="http://www.w3.org/2000/svg" xmlns:xlink="http://www.w3.org/1999/xlink" width="512" height="512" viewBox="0,0,256,256"><g fill="#ffffff" fill-rule="nonzero" stroke="none" stroke-width="1" stroke-linecap="butt" stroke-linejoin="miter" stroke-miterlimit="10" stroke-dasharray="" stroke-dashoffset="0" font-family="none" font-weight="none" font-size="none" text-anchor="none" style="mix-blend-mode: normal"><g transform="translate(0.00462,-0.00355) scale(0.5,0.5)"><path d="M256,368c-2.7852,-0.00027 -5.5221,-0.72758 -7.94,-2.11l-140.06,-80.05c-2.47703,-1.43012 -5.52913,-1.429 -8.00511,0.00294c-2.47598,1.43194 -3.99911,4.07682 -3.99489,6.93706v75.22c-0.00484,5.81556 3.14622,11.17582 8.23,14l144,80c4.83221,2.68443 10.70779,2.68443 15.54,0l144,-80c5.08378,-2.82418 8.23484,-8.18444 8.23,-14v-75.22c0.00422,-2.86023 -1.51891,-5.50511 -3.99489,-6.93706c-2.47598,-1.43194 -5.52808,-1.43307 -8.00511,-0.00294l-140.06,80.05c-2.4179,1.38242 -5.1548,2.10973 -7.94,2.11z"></path><path d="M495.92,190.5c0,0 0,-0.08 0,-0.11c-0.52494,-5.14583 -3.50514,-9.72044 -8,-12.28l-224,-128c-4.91983,-2.81217 -10.96017,-2.81217 -15.88,0l-224,128c-4.98334,2.8492 -8.05847,8.14965 -8.05847,13.89c0,5.74035 3.07513,11.0408 8.05847,13.89l224,128c4.91983,2.81217 10.96017,2.81217 15.88,0l197.08,-112.61c0.62003,-0.35798 1.38413,-0.35723 2.00345,0.00198c0.61932,0.35921 0.9994,1.02207 0.99655,1.73802v144.53c0,8.61 6.62,16 15.23,16.43c4.37176,0.21064 8.63896,-1.37886 11.80759,-4.39821c3.16862,-3.01936 4.96201,-7.20495 4.96241,-11.58179v-176c-0.00119,-0.50103 -0.02789,-1.00168 -0.08,-1.5z"></path></g></g></svg>