<svg version="1.1" xmlns="http://www.w3.org/2000/svg" xmlns:xlink="http://www.w3.org/1999/xlink" width="512" height="512" viewBox="0,0,256,256"><g fill="#ffffff" fill-rule="nonzero" stroke="none" stroke-width="1" stroke-linecap="butt" stroke-linejoin="miter" stroke-miterlimit="10" stroke-dasharray="" stroke-dashoffset="0" font-family="none" font-weight="none" font-size="none" text-anchor="none" style="mix-blend-mode: normal"><g transform="translate(0.01122,-0.00326) scale(0.5,0.5)"><path d="M476.59,227.05l-0.16,-0.07l-427.08,-177.14c-7.29653,-3.05397 -15.63865,-2.24267 -22.21,2.16c-6.94345,4.54971 -11.13056,12.28872 -11.14,20.59v113.29c0.00392,11.52421 8.19835,21.41881 19.52,23.57l232.93,43.07c1.8882,0.35797 3.25495,2.00817 3.25495,3.93c0,1.92183 -1.36675,3.57203 -3.25495,3.93l-232.92,43.07c-11.31824,2.14555 -19.51557,12.03021 -19.53,23.55v113.31c-0.00539,7.92649 3.97373,15.32488 10.59,19.69c3.91799,2.60317 8.51605,3.99442 13.22,4c3.2702,-0.00285 6.50688,-0.65903 9.52,-1.93l427.07,-176.13l0.19,-0.09c11.75013,-5.04971 19.36513,-16.61075 19.36513,-29.4c0,-12.78925 -7.615,-24.35029 -19.36513,-29.4z"></path></g></g></svg>