<svg version="1.1" xmlns="http://www.w3.org/2000/svg" xmlns:xlink="http://www.w3.org/1999/xlink" width="512" height="512" viewBox="0,0,256,256"><g fill="none" fill-rule="nonzero" stroke="#ffffff" stroke-width="32" stroke-linecap="round" stroke-linejoin="miter" stroke-miterlimit="10" stroke-dasharray="" stroke-dashoffset="0" font-family="none" font-weight="none" font-size="none" text-anchor="none" style="mix-blend-mode: normal"><g transform="translate(0.005,-0.13696) scale(0.5,0.5)"><path d="M216.08,192v143.85c0.34573,21.88601 18.18626,39.44693 40.075,39.44693c21.88874,0 39.72927,-17.56093 40.075,-39.44693l0.13,-188.55c0.29686,-24.46725 -12.58616,-47.20403 -33.72733,-59.52415c-21.14117,-12.32012 -47.27416,-12.32012 -68.41533,0c-21.14117,12.32012 -34.02419,35.0569 -33.72733,59.52415v189.82c-0.49853,34.44823 17.59385,66.4952 47.34658,83.86484c29.75273,17.36964 66.55412,17.36964 96.30685,0c29.75273,-17.36964 47.84511,-49.41661 47.34658,-83.86484v-177.38"></path></g></g></svg>