<svg version="1.1" xmlns="http://www.w3.org/2000/svg" xmlns:xlink="http://www.w3.org/1999/xlink" width="512" height="512" viewBox="0,0,256,256"><g fill="#fffefe" fill-rule="nonzero" stroke="none" stroke-width="1" stroke-linecap="butt" stroke-linejoin="miter" stroke-miterlimit="10" stroke-dasharray="" stroke-dashoffset="0" font-family="none" font-weight="none" font-size="none" text-anchor="none" style="mix-blend-mode: normal"><g transform="scale(0.5,0.5)"><path d="M424,80h-336c-30.91424,0.03307 -55.96693,25.08576 -56,56v240c0.03307,30.91424 25.08576,55.96693 56,56h336c30.91424,-0.03307 55.96693,-25.08576 56,-56v-240c-0.03307,-30.91424 -25.08576,-55.96693 -56,-56zM409.82,172.63l-144,112c-5.77658,4.49066 -13.86342,4.49066 -19.64,0l-144,-112c-4.60447,-3.47718 -6.98011,-9.16415 -6.21733,-14.88342c0.76279,-5.71927 4.54584,-10.58485 9.90066,-12.73374c5.35482,-2.1489 11.45188,-1.24822 15.95666,2.35716l134.18,104.36l134.18,-104.36c6.98162,-5.27235 16.90342,-3.95949 22.27349,2.94724c5.37008,6.90673 4.19698,16.84602 -2.63349,22.31276z"></path></g></g></svg>