<svg version="1.1" xmlns="http://www.w3.org/2000/svg" xmlns:xlink="http://www.w3.org/1999/xlink" width="512" height="512" viewBox="0,0,256,256"><g fill="#ffffff" fill-rule="nonzero" stroke="none" stroke-width="1" stroke-linecap="butt" stroke-linejoin="miter" stroke-miterlimit="10" stroke-dasharray="" stroke-dashoffset="0" font-family="none" font-weight="none" font-size="none" text-anchor="none" style="mix-blend-mode: normal"><g transform="translate(0,-0.00066) scale(0.5,0.5)"><path d="M332.64,64.58c-19.46,-21.01 -46.64,-32.58 -76.64,-32.58c-30.16,0 -57.43,11.5 -76.8,32.38c-19.58,21.11 -29.12,49.8 -26.88,80.78c4.44,61.12 50.95,110.84 103.68,110.84c52.73,0 99.16,-49.71 103.67,-110.82c2.27,-30.7 -7.33,-59.33 -27.03,-80.6z"></path><path d="M432,480h-352c-9.33067,0.12137 -18.21962,-3.96681 -24.2,-11.13c-6.5,-7.77 -9.12,-18.38 -7.18,-29.11c8.44,-46.82 34.78,-86.15 76.18,-113.76c36.78,-24.51 83.37,-38 131.2,-38c47.83,0 94.42,13.5 131.2,38c41.4,27.6 67.74,66.93 76.18,113.75c1.94,10.73 -0.68,21.34 -7.18,29.11c-5.97844,7.16692 -14.86767,11.25891 -24.2,11.14z"></path></g></g></svg>